Coordinates
version=1
nRows=12
nColumns=24
inDegrees=yes

Units are S.I. units (second, meters, Newtons, ...)
Angles are in degrees.

endheader
time	pelvis_tilt	pelvis_list	pelvis_rotation	pelvis_tx	pelvis_ty	pelvis_tz	hip_flexion_r	hip_adduction_r	hip_rotation_r	knee_angle_r	ankle_angle_r	subtalar_angle_r	mtp_angle_r	hip_flexion_l	hip_adduction_l	hip_rotation_l	knee_angle_l	ankle_angle_l	subtalar_angle_l	mtp_angle_l	lumbar_extension	lumbar_bending	lumbar_rotation
      0.76233333	     -3.09435523	     -2.46611581	      0.17216343	     -0.52092204	      0.99828789	      0.32592685	     16.14566358	      5.45685225	     -0.12375380	    -22.24980877	     10.19102172	    -12.73979955	      1.59649263	     14.35980476	     -3.40573605	     -2.83363817	    -69.52617430	     -9.34044025	    -13.00246529	      3.40954573	     -8.72629968	     10.53885545	     -1.71111661
      0.76650000	     -3.00875341	     -2.39486958	      0.17624756	     -0.51596967	      0.99933362	      0.32644404	     15.53469674	      5.44290104	      0.01814616	    -21.83289082	     10.22579549	    -12.87486457	      1.57798218	     14.89803472	     -3.42092858	     -3.01455653	    -69.62845197	     -8.68536103	    -13.06670647	      3.30963065	     -8.90472718	     10.34305479	     -1.22057175
      0.77066667	     -2.93814976	     -2.28233587	      0.17771338	     -0.51099809	      1.00034990	      0.32691705	     14.94539577	      5.37619072	      0.13810008	    -21.43299245	     10.28127063	    -12.96942734	      1.55739189	     15.43521685	     -3.37341090	     -3.19018450	    -69.65343835	     -8.10023887	    -13.21649433	      3.18739452	     -9.03347722	     10.13976081	     -0.90242538
      0.77483333	     -2.88144915	     -2.16165394	      0.17790992	     -0.50601656	      1.00134972	      0.32737122	     14.36437267	      5.29748836	      0.25296287	    -21.01972802	     10.33437733	    -13.04966830	      1.53534616	     15.97620041	     -3.31108451	     -3.36083828	    -69.61813861	     -7.53120143	    -13.33878864	      3.05990181	     -9.13528289	      9.92985653	     -0.61013181
      0.77900000	     -2.78999985	     -2.02394642	      0.17024034	     -0.50102169	      1.00240520	      0.32781427	     13.73851094	      5.19842716	      0.36857791	    -20.59164316	     10.38602166	    -13.10729938	      1.51213746	     16.46067541	     -3.22523723	     -3.53573152	    -69.51032688	     -6.98933198	    -13.44553741	      2.92869744	     -9.28017132	      9.70348209	     -0.32403591
      0.78316667	     -2.72498094	     -1.88244647	      0.15672965	     -0.49603723	      1.00338044	      0.32825586	     13.14442178	      5.09415079	      0.48199953	    -20.16870335	     10.43728905	    -13.16295145	      1.48810423	     16.96704144	     -3.13343845	     -3.70992877	    -69.35787775	     -6.44424610	    -13.51412211	      2.80124782	     -9.38924093	      9.47081657	     -0.03517315
      0.78733333	     -2.64059484	     -1.74085535	      0.14204040	     -0.49104190	      1.00437022	      0.32868019	     12.51905739	      4.98662141	      0.59434460	    -19.72345176	     10.47945359	    -13.21703084	      1.46151292	     17.43878044	     -3.03513942	     -3.87616675	    -69.14635984	     -5.91694729	    -13.56192311	      2.66827583	     -9.52214386	      9.24354411	      0.25069836
      0.79150000	     -2.57263538	     -1.58364711	      0.12474415	     -0.48606714	      1.00531792	      0.32907966	     11.91968812	      4.85691250	      0.69381761	    -19.29247831	     10.50030995	    -13.24025146	      1.44133553	     17.91851070	     -2.90985553	     -4.03449910	    -68.88138956	     -5.38877173	    -13.61298386	      2.57858020	     -9.64760652	      9.00427216	      0.46485531
      0.79566667	     -2.47418173	     -1.43761441	      0.10521768	     -0.48103171	      1.00629682	      0.32948782	     11.26098628	      4.74042333	      0.79951647	    -18.81090911	     10.55485535	    -13.29097676	      1.41192343	     18.34424907	     -2.80339659	     -4.19877046	    -68.55170282	     -4.89540019	    -13.57795361	      2.44621060	     -9.77633465	      8.77113800	      0.79237122
      0.79983333	     -2.40126745	     -1.28649967	      0.08690929	     -0.47602147	      1.00719777	      0.32987106	     10.63687418	      4.61341347	      0.89673043	    -18.34011085	     10.58042545	    -13.33163573	      1.38123618	     18.79250866	     -2.68130332	     -4.34791631	    -68.18139852	     -4.38785437	    -13.53284034	      2.32029793	     -9.88439235	      8.53490237	      1.05786933
      0.80400000	     -2.34643947	     -1.11099064	      0.07020821	     -0.47103948	      1.00803858	      0.33020093	     10.04612500	      4.45129563	      0.97177922	    -17.89475300	     10.58904305	    -13.32432506	      1.36011116	     19.24827551	     -2.51337358	     -4.47735316	    -67.75437682	     -3.88703639	    -13.50341479	      2.24386129	     -9.98419197	      8.29145824	      1.24055558
      0.80816667	     -2.24613499	     -0.97584223	      0.05396161	     -0.46600670	      1.00890012	      0.33056850	      9.37838992	      4.33640223	      1.05314364	    -17.39452887	     10.64443162	    -13.35529338	      1.32878813	     19.64207091	     -2.40675131	     -4.61537253	    -67.28590271	     -3.39907971	    -13.37262209	      2.12973878	    -10.11530087	      8.06765325	      1.54080587
